<?xml version="1.0" encoding="UTF-8" standalone="no"?>
<!-- Created with Inkscape (http://www.inkscape.org/) -->
<svg id="svg2" xmlns:rdf="http://www.w3.org/1999/02/22-rdf-syntax-ns#" xmlns="http://www.w3.org/2000/svg" height="300" width="300" version="1.1" xmlns:cc="http://creativecommons.org/ns#" xmlns:dc="http://purl.org/dc/elements/1.1/" viewBox="0 0 300 300">
 <metadata id="metadata7">
  <rdf:RDF>
   <cc:Work rdf:about="">
    <dc:format>image/svg+xml</dc:format>
    <dc:type rdf:resource="http://purl.org/dc/dcmitype/StillImage"/>
    <dc:title/>
   </cc:Work>
  </rdf:RDF>
 </metadata>
 <g id="layer4">
  <circle id="path4249" cx="150.36" transform="translate(0 -752.36)" cy="902.72" r="148.93" stroke-width="30" fill="#575d63"/>
 </g>
 <g id="layer1" transform="translate(0 -752.36)">
  <ellipse id="path4255" rx="140" ry="137.14" cy="900.93" cx="150" stroke-width="30" fill="#fff"/>
 </g>
 <g id="layer3" fill-rule="evenodd" fill="#73c990">
  <path id="path4269" style="color-rendering:auto;text-decoration-color:#000000;color:#000000;isolation:auto;mix-blend-mode:normal;shape-rendering:auto;solid-color:#000000;block-progression:tb;text-decoration-line:none;text-decoration-style:solid;image-rendering:auto;white-space:normal;text-indent:0;text-transform:none" d="m43.231 57.731c28.163 14.818 11.89 57.909 23.024 87.529 21.695-23.73 17.869-59.815 27.723-89.046-0.06-5.044-3.133-26.561-2.564-35.373-18.012 10.834-34.856 22.226-48.183 36.89z"/>
  <path id="path4297" style="color-rendering:auto;text-decoration-color:#000000;color:#000000;isolation:auto;mix-blend-mode:normal;shape-rendering:auto;solid-color:#000000;block-progression:tb;text-decoration-line:none;text-decoration-style:solid;image-rendering:auto;white-space:normal;text-indent:0;text-transform:none" d="m182.77 16.101-6.3121 56.969c27.808 24.323 65.247 12.8 85.214-9.9763-5.9104-9.4772-48.862-46.872-78.902-46.993z"/>
  <path id="path4403" style="color-rendering:auto;text-decoration-color:#000000;color:#000000;isolation:auto;mix-blend-mode:normal;shape-rendering:auto;solid-color:#000000;block-progression:tb;text-decoration-line:none;text-decoration-style:solid;image-rendering:auto;white-space:normal;text-indent:0;text-transform:none" d="m45.773 166.15-34.286 9.6437 6.6677 21.626c9.906-8.831 21.45-15.206 27.857-29.285z"/>
  <path id="path4405" style="color-rendering:auto;text-decoration-color:#000000;color:#000000;isolation:auto;mix-blend-mode:normal;shape-rendering:auto;solid-color:#000000;block-progression:tb;text-decoration-line:none;text-decoration-style:solid;image-rendering:auto;white-space:normal;text-indent:0;text-transform:none" d="m53.834 189.81-33.571 13.215 8.4029 17.17 25.356-27.501z"/>
  <path id="path4407" style="color-rendering:auto;text-decoration-color:#000000;color:#000000;isolation:auto;mix-blend-mode:normal;shape-rendering:auto;solid-color:#000000;block-progression:tb;text-decoration-line:none;text-decoration-style:solid;image-rendering:auto;white-space:normal;text-indent:0;text-transform:none" d="m46.695 233.38-5.3563 1.7857c1.6191 2.3947 2.9788 4.8812 5.8951 6.817l1.7868-6.7857z"/>
  <path id="path4409" style="color-rendering:auto;text-decoration-color:#000000;color:#000000;isolation:auto;mix-blend-mode:normal;shape-rendering:auto;solid-color:#000000;block-progression:tb;text-decoration-line:none;text-decoration-style:solid;image-rendering:auto;white-space:normal;text-indent:0;text-transform:none" d="m99.797 240.64-23.573 23.929c5.9745 7.1165 11.217 8.199 17.194 9.7924l8.5728-29.643z"/>
  <path id="path4411" style="color-rendering:auto;text-decoration-color:#000000;color:#000000;isolation:auto;mix-blend-mode:normal;shape-rendering:auto;solid-color:#000000;block-progression:tb;text-decoration-line:none;text-decoration-style:solid;image-rendering:auto;white-space:normal;text-indent:0;text-transform:none" d="m148.05 246.39c-5.2538 7.2614-16.786 25.635-23.918 32.896l20.383 5.1571c7.9948-7.5346 15.986-21.255 20.556-27.934-1.7074-2.7189-13.423-11.181-17.02-10.119z"/>
  <path id="path4413" style="color-rendering:auto;text-decoration-color:#000000;color:#000000;isolation:auto;mix-blend-mode:normal;shape-rendering:auto;solid-color:#000000;block-progression:tb;text-decoration-line:none;text-decoration-style:solid;image-rendering:auto;white-space:normal;text-indent:0;text-transform:none" d="m196.63 240.93-18.213 41.785 1.3895 1.0006c37.681-8.9682 27.705-13.74 26.785-22.5-2.4188-7.4833-3.1177-16.342-9.9609-20.286z"/>
  <path id="path4415" style="color-rendering:auto;text-decoration-color:#000000;color:#000000;isolation:auto;mix-blend-mode:normal;shape-rendering:auto;solid-color:#000000;block-progression:tb;text-decoration-line:none;text-decoration-style:solid;image-rendering:auto;white-space:normal;text-indent:0;text-transform:none" d="m227.71 233.5-7.5586-2.7213 10.713 30.357c4.4011-3.2834 9.0577-6.3114 12.561-10.493z"/>
  <path id="path4417" style="color-rendering:auto;text-decoration-color:#000000;color:#000000;isolation:auto;mix-blend-mode:normal;shape-rendering:auto;solid-color:#000000;block-progression:tb;text-decoration-line:none;text-decoration-style:solid;image-rendering:auto;white-space:normal;text-indent:0;text-transform:none" d="m272.61 210.71-8.214 10.715 1.9185 4.2927 9.6426-14.642z"/>
 </g>
 <g id="layer2">
  <path id="path4258" d="m5 152.14 290-2.14" stroke="#43484f" stroke-width="5" fill="none"/>
  <g fill-rule="evenodd">
   <g fill="#575d63">
    <path id="path4260" style="color-rendering:auto;text-decoration-color:#000000;color:#000000;isolation:auto;mix-blend-mode:normal;shape-rendering:auto;solid-color:#000000;block-progression:tb;text-decoration-line:none;text-decoration-style:solid;image-rendering:auto;white-space:normal;text-indent:0;text-transform:none" d="m79.021 25.56c9.872 35.546 4.216 74.273-10.516 113.19-2.297-34.04-7.31-117.04-29.902-80.206-13.091 28.375-29.096 24.437-35.377 90.266 4.622 3.67 8.372-42.84 23.244-65.941 19.669-30.558 25.204-32.914 35.896 68.651l11.803-0.33374c38.101-101.69 15.182-123.69 19.708-127.15 24.003 20.618 31.163 79.5 25.193 127.13l10.797-0.022c-3.1185-9.0009 15.337-58.482-18.088-135.79-10.808-1.2394-23.373 5.5475-32.754 10.203z"/>
    <path id="path4281" style="color-rendering:auto;text-decoration-color:#000000;color:#000000;isolation:auto;mix-blend-mode:normal;shape-rendering:auto;solid-color:#000000;block-progression:tb;text-decoration-line:none;text-decoration-style:solid;image-rendering:auto;white-space:normal;text-indent:0;text-transform:none" d="m188.21 12.804-12.14-3.4656c-4.495 16.257-16.63 69.633 4.6118 142.12 12.399-4.0264-9.6429 2.5 10.355-0.0957-21.81-71.74-11.64-99.052-2.83-138.56z"/>
    <path id="path4285" style="color-rendering:auto;text-decoration-color:#000000;color:#000000;isolation:auto;mix-blend-mode:normal;shape-rendering:auto;solid-color:#000000;block-progression:tb;text-decoration-line:none;text-decoration-style:solid;image-rendering:auto;white-space:normal;text-indent:0;text-transform:none" d="m262.92 57.229c-13.935 22.885-32.849 29.845-86.428 14.999l-1.2051 10.544c47.015 15.332 86.912-1.7996 88.928-20.713z"/>
    <path id="path4289" style="color-rendering:auto;text-decoration-color:#000000;color:#000000;isolation:auto;mix-blend-mode:normal;shape-rendering:auto;solid-color:#000000;block-progression:tb;text-decoration-line:none;text-decoration-style:solid;image-rendering:auto;white-space:normal;text-indent:0;text-transform:none" d="m235.41 82.016-10.101 3.4679c17.056 17.263 32.33 29.624 30.356 64.999l10.103-1.3251c1.0342-23.028-6.646-46.017-30.358-67.142z"/>
   </g>
   <path id="path4323" style="color-rendering:auto;text-decoration-color:#000000;color:#000000;isolation:auto;mix-blend-mode:normal;shape-rendering:auto;solid-color:#000000;block-progression:tb;text-decoration-line:none;text-decoration-style:solid;image-rendering:auto;white-space:normal;text-indent:0;text-transform:none" d="m146.94 173.63-12.072 33.007 39.066 0.1577-12.427-33.01z" fill="#73c990"/>
   <g fill="#575d63">
    <path id="path4301" style="color-rendering:auto;text-decoration-color:#000000;color:#000000;isolation:auto;mix-blend-mode:normal;shape-rendering:auto;solid-color:#000000;block-progression:tb;text-decoration-line:none;text-decoration-style:solid;image-rendering:auto;white-space:normal;text-indent:0;text-transform:none" d="m50.393 162.46c-12.9 7.8572-29.575 9.2835-39.823 11.496l0.80055 3.0822c15.623-1.6954 25.727-3.5267 33.967-9.4798-5.1201 10.804-20.318 21.326-31.496 32.117l2.715 5.7224c11.158-2.7407 26.168-6.796 36.023-13.639-3.4535 9.3386-16.742 19.189-25.411 27.159l1.4224 8.3505c9.9536-10.097 25.222-26.299 31.21-41.948-19.018 10.634-25.259 8.3601-37.611 13.058 9.4011-8.8284 18.802-13.595 28.203-35.918z"/>
    <path id="path4303" style="color-rendering:auto;text-decoration-color:#000000;color:#000000;isolation:auto;mix-blend-mode:normal;shape-rendering:auto;solid-color:#000000;block-progression:tb;text-decoration-line:none;text-decoration-style:solid;image-rendering:auto;white-space:normal;text-indent:0;text-transform:none" d="m69.04 207.94c-3.6647 10.046-14.863 20.51-24.401 23.917l-6.2092 0.79051 4.2355 4.5391 3.4181-1.031-0.1689 3.2715c0.9316 7.3764 7.7068 10.468 12.7 14.866 8.578-4.5672 26.225-18.798 29.942-35.821l-6.9528 0.75066c-4.5714 9.7857-13.384 23.462-22.657 28.312-0.96392 2.3118-8.8273-3.8718-7.767-12.012 9.9793-5.2607 20.259-20.266 24.098-29.107z"/>
    <path id="path4305" style="color-rendering:auto;text-decoration-color:#000000;color:#000000;isolation:auto;mix-blend-mode:normal;shape-rendering:auto;solid-color:#000000;block-progression:tb;text-decoration-line:none;text-decoration-style:solid;image-rendering:auto;white-space:normal;text-indent:0;text-transform:none" d="m106.46 227.22c-7.241 9.5806-21.494 25.501-36.217 38.039l6.5536 1.82c8.1884-7.9025 17.434-14.14 23.706-25.06-6.1741 23.437-9.7407 31.356-9.6712 41.298-5.5455-3.6115 32.362-14.957 32.705-43.115-7.9224 11.816-14.385 22.888-26.137 28.677 7.356-20.583 8.9677-25.464 9.0603-41.659z"/>
    <path id="path4307" style="color-rendering:auto;text-decoration-color:#000000;color:#000000;isolation:auto;mix-blend-mode:normal;shape-rendering:auto;solid-color:#000000;block-progression:tb;text-decoration-line:none;text-decoration-style:solid;image-rendering:auto;white-space:normal;text-indent:0;text-transform:none" d="m146.37 240.18c-2.3673 20.231-34.621 37.559-29.194 44.586 7.8104 4.3167 21.172 2.4272 30.864 4.7691 17.051-31.198 35.021-30.404-1.6699-49.355zm2.89 7.4089c23.446 12.174 9.9359 12.254-3.0072 33.336-8.3102 2.5316 1.5525 2.5646-19.153-2.4594 6.2705-9.841 11.953-10.98 22.16-30.877z"/>
    <path id="path4309" style="color-rendering:auto;text-decoration-color:#000000;color:#000000;isolation:auto;mix-blend-mode:normal;shape-rendering:auto;solid-color:#000000;block-progression:tb;text-decoration-line:none;text-decoration-style:solid;image-rendering:auto;white-space:normal;text-indent:0;text-transform:none" d="m195.14 235.4c-3.1775 11.549-12.104 30.724-26.876 52.413l11.049-2.3596c7.1284-15.178 15.502-32.993 17.08-42.579 4.9791 1.9362 11.478 28.485 5.7387 37.416-3.6365 5.6592 4.8167-8.738 6.74-2.7324l2.7861-1.2853c-2.4474-16.835-4.6628-33.912-16.518-40.873z"/>
    <path id="path4313" style="color-rendering:auto;text-decoration-color:#000000;color:#000000;isolation:auto;mix-blend-mode:normal;shape-rendering:auto;solid-color:#000000;block-progression:tb;text-decoration-line:none;text-decoration-style:solid;image-rendering:auto;white-space:normal;text-indent:0;text-transform:none" d="m272.33 164.43-24.494 31.372c8.2389 3.0479 12.481 20.946 15.37 38.251l5.2058-5.9935-6.961-41.954 17.983-25.647c-2.3682 1.5846-4.7363 3.3542-7.1045 3.9702z"/>
    <path id="path4315" style="color-rendering:auto;text-decoration-color:#000000;color:#000000;isolation:auto;mix-blend-mode:normal;shape-rendering:auto;solid-color:#000000;block-progression:tb;text-decoration-line:none;text-decoration-style:solid;image-rendering:auto;white-space:normal;text-indent:0;text-transform:none" d="m275.59 181.81c-4.6997 7.7592-8.0559 12.827-14.144 19.279l0.71251 7.192c6.5834-6.9766 17.631-22.605 22.16-30.082-2.9093 2.586-5.8186 4.0616-8.7279 3.6104z"/>
    <path id="path4317" style="color-rendering:auto;text-decoration-color:#000000;color:#000000;isolation:auto;mix-blend-mode:normal;shape-rendering:auto;solid-color:#000000;block-progression:tb;text-decoration-line:none;text-decoration-style:solid;image-rendering:auto;white-space:normal;text-indent:0;text-transform:none" d="m276.07 201.82c-3.001 11.41-8.6496 13.827-14.378 17.359l1.5416 2.7556c6.2043-3.8261 15.857-12.907 19.03-24.971z"/>
    <path id="path4366" style="color-rendering:auto;text-decoration-color:#000000;color:#000000;isolation:auto;mix-blend-mode:normal;shape-rendering:auto;solid-color:#000000;block-progression:tb;text-decoration-line:none;text-decoration-style:solid;image-rendering:auto;white-space:normal;text-indent:0;text-transform:none" d="m211.75 219.76c7.4032 10.32 16.065 30.345 17.443 50.564l4.352-5.4552c-3.3417-11.136-4.7986-22.57-11.557-33.165 17.598 15.816 19.745 24.059 30.995 26.703-2.2508 3.2539 1.3702-37.086-22.785-49.363 6.8311 12.544 13.64 23.386 13.645 37.01-14.635-15.727-18.161-19.331-32.093-26.293z"/>
    <path id="path4266" style="color-rendering:auto;text-decoration-color:#000000;color:#000000;isolation:auto;mix-blend-mode:normal;shape-rendering:auto;solid-color:#000000;block-progression:tb;text-decoration-line:none;text-decoration-style:solid;image-rendering:auto;white-space:normal;text-indent:0;text-transform:none" d="m194.78 30.845-1.1496 21.112c-2.2418 17.485 38.717 17.262 54.688 10.706-13.99-6.943-35.97-30.865-53.54-31.818z"/>
    <path id="path4268" style="color-rendering:auto;text-decoration-color:#000000;color:#000000;isolation:auto;mix-blend-mode:normal;shape-rendering:auto;solid-color:#000000;block-progression:tb;text-decoration-line:none;text-decoration-style:solid;image-rendering:auto;white-space:normal;text-indent:0;text-transform:none" d="m188.61 275.52 10.182-11.644c2.5144-4.3848 3.2669-3.3783-1.5156-12.628 0 0-4.7665 18.777-8.666 24.271z"/>
    <path id="path4270" style="color-rendering:auto;text-decoration-color:#000000;color:#000000;isolation:auto;mix-blend-mode:normal;shape-rendering:auto;solid-color:#000000;block-progression:tb;text-decoration-line:none;text-decoration-style:solid;image-rendering:auto;white-space:normal;text-indent:0;text-transform:none" d="m67.053 32.257-10.867 8.692c8.267 0.377 17.749 46.896 17.434 47.877 3.163-25.101-1.88-40.628-6.567-56.569z"/>
   </g>
  </g>
 </g>
 <g id="layer5">
  <path id="path4253" style="color-rendering:auto;text-decoration-color:#000000;color:#000000;isolation:auto;mix-blend-mode:normal;shape-rendering:auto;solid-color:#000000;block-progression:tb;text-decoration-line:none;text-decoration-style:solid;image-rendering:auto;white-space:normal;text-indent:0;text-transform:none" d="m159.23 183.99c-1.3343-1.2264-5.2679-3.0007-8.6409 0.70529-1.5948 2.2424-0.62678 5.9389 0.42503 6.875 0.7037 0.59161 2.4827 2.0761 2.9748 2.6677 0.6689 1.2974-3.9595 6.0769-6.3573 7.3742l1.2547 1.1934c2.9111-1.1738 8.5736-6.9393 10.746-9.576 1.744-2.28 2.0593-6.6333-0.40208-9.2397z" fill-rule="evenodd" fill="#575d63"/>
 </g>
</svg>
